<svg width="198" height="8" viewBox="0 0 198 8" fill="none" xmlns="http://www.w3.org/2000/svg">
<path d="M-0.00068748 0.0718045H1.79931V5.4158H-0.00068748V0.0718045ZM2.37531 2.4558H4.15131V5.4158H2.37531V2.4558ZM4.72731 2.4558H6.52731V7.7998H4.72731V2.4558ZM28.8183 -0.000195503V1.7918H16.7063V-0.000195503H28.8183ZM18.7863 2.9918H26.7383V4.7838H18.7863V2.9918ZM16.7063 5.9998H28.8183V7.7998H16.7063V5.9998ZM39.0208 0.0238042H40.8288V1.5518H45.7168L48.2128 0.0238042H51.8448L45.7168 3.3518H39.0208V0.0238042ZM39.0208 4.4718H45.9168L51.9248 7.7998H48.5248L45.5808 6.2718H40.8048V7.7998H39.0208V4.4718ZM71.9531 0.0238042L65.4251 7.7998H63.1611L67.9611 2.0398V1.9038H62.2011L63.6091 0.0238042H71.9531ZM82.1192 0.0238042H83.9272V1.5518H88.8152L91.3112 0.0238042H94.9432L88.8152 3.3518H82.1192V0.0238042ZM82.1192 4.4718H89.0152L95.0232 7.7998H91.6232L88.6792 6.2718H83.9032V7.7998H82.1192V4.4718ZM105.156 0.0718045H106.956V5.4158H105.156V0.0718045ZM107.532 2.4558H109.308V5.4158H107.532V2.4558ZM109.884 2.4558H111.684V7.7998H109.884V2.4558ZM128.767 0.0238042V6.3198H129.279L131.927 3.6318H134.255L130.063 7.7998H125.991L121.759 3.6078H124.103L126.775 6.2958H127.263V0.0238042H128.767ZM155.962 0.0158043V1.8078H154.77V7.7998H153.154V1.8078H152.93L150.082 7.7998H148.01L144.274 0.0158043H146.282L149.066 5.5838L151.762 0.0158043H155.962ZM176 0.0238042L169.472 7.7998H167.208L172.008 2.0398V1.9038H166.248L167.656 0.0238042H176ZM189.67 0.0238042L195.582 5.9518V0.0238042H197.246V7.7998H194.966L187.182 0.0238042H189.67ZM186.534 4.1038L192.582 6.2958L192.046 7.7998L185.974 5.6478L186.534 4.1038Z" fill="#788596"/>
</svg>
