<svg width="83" height="8" viewBox="0 0 83 8" fill="none" xmlns="http://www.w3.org/2000/svg">
<path d="M6.49569 0.103843V1.96784C7.49835 1.80251 8.29835 1.61051 8.89569 1.39184C9.49302 1.17318 10.357 0.709177 11.4877 -0.000156403V1.59984C10.5917 2.19718 9.79435 2.63984 9.09569 2.92784C8.39702 3.21051 7.53035 3.45851 6.49569 3.67184V6.05584H11.4877V7.83984H-0.000312477V2.48784L2.09569 2.47984C3.04502 2.43718 3.96235 2.34118 4.84769 2.19184L4.85569 0.103843H6.49569ZM1.76769 6.05584H4.85569V4.04784C4.13569 4.14384 3.38635 4.20251 2.60769 4.22384H1.75969L1.76769 6.05584ZM25.9807 0.0398436V7.83984H24.5007V1.99984L22.9247 3.56784L21.7807 2.41584C21.7647 2.37318 21.786 2.33051 21.8447 2.28784L24.0527 0.0398436H25.9807ZM43.5879 0.0318432V7.84784H41.5079L36.4679 4.54384L37.4039 3.07984L42.0039 6.06384V0.0318432H43.5879ZM60.8426 0.0638433V2.15184L59.1786 2.16784L56.9626 6.04784H61.3786L60.2986 7.83984H53.9386L58.2186 0.0638433H60.8426ZM75.1466 0.0638433L81.0586 5.99184V0.0638433H82.7226V7.83984H80.4426L72.6586 0.0638433H75.1466ZM72.0106 4.14384L78.0586 6.33584L77.5226 7.83984L71.4506 5.68784L72.0106 4.14384Z" fill="#788596"/>
</svg>
