<svg width="137" height="8" viewBox="0 0 137 8" fill="none" xmlns="http://www.w3.org/2000/svg">
<path d="M7.45475 0.0716166V7.80762H1.56675C0.585417 7.09295 0.06275 5.93562 -0.00125 4.33562C0.12675 2.61828 0.761417 1.19962 1.90275 0.079617H4.46275V1.95162H2.68675V1.53562H2.39875C1.99342 2.00495 1.79075 2.93828 1.79075 4.33562C1.76942 5.37028 1.91875 5.93562 2.23875 6.03162H5.66275V0.0636168L7.45475 0.0716166ZM25.0504 -0.000383377V7.81562H22.9704L17.9304 4.51162L18.8664 3.04762L23.4664 6.03162V-0.000383377H25.0504ZM35.5051 0.0316167H37.3131V1.55962H42.2011L44.6971 0.0316167H48.3291L42.2011 3.35962H35.5051V0.0316167ZM35.5051 4.47962H42.4011L48.4091 7.80762H45.0091L42.0651 6.27962H37.2891V7.80762H35.5051V4.47962ZM60.7815 6.30362L60.9735 6.28762L64.2455 0.0316167H66.3015L70.6535 7.80762H68.6375L65.2935 1.66362L62.0455 7.80762H60.0455L59.9255 7.79962L59.7255 7.51162L59.5415 7.19962L59.2935 6.76762L59.0775 6.27162L58.8695 5.75162L58.7495 5.15162L58.6215 4.47162L58.5735 3.76762L58.6215 3.06362L58.6855 2.42362L58.8135 1.79962L58.9495 1.32762L59.1655 0.895617L59.3735 0.519617L59.6215 0.207617L59.7655 0.047617H61.2455L60.9895 0.295617L60.7815 0.599617L60.5735 0.975617L60.4135 1.34362L60.2695 1.79962L60.1415 2.39962L60.0375 3.06362L59.9975 3.72762L60.0375 4.39162L60.1655 5.09562L60.3255 5.63162L60.4935 5.95962L60.7815 6.30362ZM92.3338 0.0236168V1.81562H91.1418V7.80762H89.5258V1.81562H89.3018L86.4538 7.80762H84.3818L80.6458 0.0236168H82.6538L85.4378 5.59162L88.1338 0.0236168H92.3338ZM109.276 0.0316167V6.32762H109.788L112.436 3.63962H114.764L110.572 7.80762H106.5L102.268 3.61562H104.612L107.284 6.30362H107.772V0.0316167H109.276ZM128.487 0.0316167L134.399 5.95962V0.0316167H136.063V7.80762H133.783L125.999 0.0316167H128.487ZM125.351 4.11162L131.399 6.30362L130.863 7.80762L124.791 5.65562L125.351 4.11162Z" fill="#788596"/>
</svg>
