<svg width="305" height="133" viewBox="0 0 305 133" fill="none" xmlns="http://www.w3.org/2000/svg">
<path d="M147.096 10.3841V20.7468H133.327H119.557V42.3215V63.8963H108.306H97.0555V42.3215V20.7468H82.2982C72.6249 20.7468 67.468 20.8664 67.3289 21.0933C67.2124 21.2843 68.6589 23.0806 70.5433 25.0855C78.7009 33.7657 80.3775 37.0631 80.3439 44.3601C80.3012 53.6172 74.6621 61.0871 65.9916 63.372C64.2654 63.8269 59.7624 63.8963 31.9992 63.8963H-0.00327492V52.6842V41.4721H25.1574C38.9959 41.4721 50.5573 41.3794 50.8494 41.2659C51.1416 41.1524 51.3807 40.9166 51.3807 40.7416C51.3807 40.5667 49.4785 38.328 47.1535 35.7665C43.5795 31.8291 42.7019 30.6368 41.4764 28.0516C39.6947 24.2932 39.1618 22.0599 39.2051 18.5383C39.3075 10.2917 45.1143 3.19513 53.822 0.675472C55.7813 0.108413 58.8194 0.0683211 101.505 0.0455572L147.096 0.0214349V10.3841Z" fill="#F6F6F6"/>
<path fill-rule="evenodd" clip-rule="evenodd" d="M192.445 0.785894C192.993 2.05252 211.578 62.8855 211.578 63.4148C211.578 63.8344 209.924 63.8922 200.139 63.8157L188.699 63.7264L187.274 59.3095L185.849 54.8926L175.069 54.8029L164.289 54.7136L163.061 58.7102C162.386 60.9084 161.756 62.9745 161.663 63.3017C161.504 63.8535 160.644 63.8963 149.738 63.8963C138.702 63.8963 137.993 63.8599 138.153 63.3017C139.208 59.6133 156.594 1.51366 156.832 0.879328L157.155 0.0214349H174.634H192.114L192.445 0.785894ZM170.193 36.9703C170.111 36.7369 171.182 32.8381 172.572 28.3064C173.963 23.7747 175.184 20.0686 175.287 20.07C175.637 20.0747 180.421 36.3649 180.224 36.882C180.063 37.3067 179.197 37.395 175.185 37.395C171.613 37.395 170.302 37.2836 170.193 36.9703Z" fill="#F6F6F6"/>
<path fill-rule="evenodd" clip-rule="evenodd" d="M266.488 1.11682C273.636 3.5794 278.74 8.64487 280.621 15.1407C281.349 17.655 281.442 23.2087 280.801 25.8432C279.629 30.664 276.836 34.4867 272.237 37.5649C270.841 38.4992 269.694 39.4512 269.689 39.6806C269.683 39.9099 270.088 40.3686 270.587 40.6998C271.42 41.252 272.863 41.3107 287.883 41.4052L304.271 41.5078V52.7022V63.8963H284.191C262.232 63.8963 262.2 63.8939 258.092 61.8689C256.454 61.0616 254.727 59.5049 248.864 53.5523C244.897 49.5244 241.535 46.2288 241.392 46.2288C241.249 46.2288 241.132 50.2039 241.132 55.0625V63.8963H228.538H215.944V31.948V-0.000309816L239.873 0.095502L263.802 0.191314L266.488 1.11682ZM241.204 22.4687C241.151 20.5191 241.184 18.7225 241.277 18.4765C241.529 17.8133 254.804 17.8361 256.38 18.5023C257.937 19.1604 258.596 20.2538 258.596 22.1761C258.596 23.4832 258.408 24.0068 257.616 24.9034L256.637 26.0131H248.969H241.3L241.204 22.4687Z" fill="#F6F6F6"/>
<path fill-rule="evenodd" clip-rule="evenodd" d="M214.054 69.1646C223.019 70.7462 229.867 76.6233 231.887 84.4694C232.549 87.0407 232.549 92.3885 231.886 94.9979C230.718 99.6002 227.789 103.539 223.277 106.573C221.751 107.6 220.983 108.33 221.051 108.689C221.306 110.026 222.191 110.093 239.705 110.098C254.968 110.103 256.581 110.052 256.581 109.559C256.581 109.259 255.198 107.539 253.507 105.737C247.947 99.8082 246.343 97.2739 245.14 92.5156C243.524 86.1244 245.06 80.1643 249.578 75.2874C251.88 72.8034 254.275 71.2986 258.173 69.8879C260.12 69.1831 262.173 68.8178 264.244 68.8081L282.693 68.7215L304.271 68.6206V79.1691V89.718H288.486C277.193 89.718 272.702 89.8247 272.702 90.0931C272.702 90.2997 274.54 92.4765 276.788 94.9309C281.624 100.213 282.499 101.371 283.965 104.43C285.359 107.337 285.946 110.762 285.695 114.519C285.113 123.252 279.213 130.383 270.937 132.357C267.773 133.112 216.793 133.1 213.623 132.344C208.881 131.213 207.681 130.35 199.656 122.29L192.267 114.869L192.178 123.873L192.088 132.876L179.584 132.787L167.079 132.698L166.992 101.1C166.944 83.7212 166.978 69.3113 167.066 69.0776C167.324 68.3933 210.132 68.4725 214.054 69.1646ZM192.603 94.9843L192.508 90.9921L192.414 86.9999H199.488C207.361 86.9999 208.467 87.2231 209.373 88.995C210.476 91.1535 209.756 93.6422 207.749 94.6058C206.754 95.0835 205.526 95.1542 199.59 95.076L192.603 94.9843Z" fill="#F6F6F6"/>
<path fill-rule="evenodd" clip-rule="evenodd" d="M141.949 68.9169C142.285 69.133 145.388 79.0726 159.543 125.276C160.64 128.855 161.537 132.028 161.537 132.326C161.537 132.811 160.346 132.867 150.135 132.867H138.734L137.289 128.366L135.845 123.864L125.035 123.774L114.225 123.684L112.805 128.276L111.384 132.867H99.8735C93.5429 132.867 88.2849 132.74 88.1895 132.583C88.0942 132.427 88.5274 130.631 89.1527 128.591C89.7777 126.552 94.0151 112.423 98.5688 97.1951C103.122 81.9664 107.006 69.3148 107.199 69.08C107.471 68.7474 111.305 68.6539 124.552 68.658C133.904 68.661 141.732 68.7772 141.949 68.9169ZM120.653 106.111C119.958 106.35 120.398 104.308 122.64 96.8815C123.992 92.4041 125.194 88.8462 125.311 88.9746C125.604 89.2974 130.304 104.854 130.304 105.503C130.304 105.95 129.615 106.026 125.602 106.026C123.016 106.026 120.789 106.065 120.653 106.111Z" fill="#F6F6F6"/>
<path d="M25.9416 70.2668C26.2009 71.1545 27.3078 74.9751 28.4017 78.7577C29.4955 82.5399 30.4812 85.6361 30.5924 85.6378C30.7032 85.6395 31.5838 82.7743 32.5487 79.2704C33.5139 75.7668 34.5647 71.9825 34.8841 70.8613L35.4648 68.8228L48.476 68.7338L61.487 68.6447L61.9366 69.753C62.1838 70.3626 63.4107 74.1869 64.6627 78.2511C65.9147 82.3153 67.028 85.6402 67.1362 85.6395C67.2446 85.6388 68.2982 82.3136 69.4777 78.2498C70.6572 74.1862 71.8209 70.3643 72.0633 69.7571L72.5046 68.6529H84.3142H96.1242L95.9818 69.5872C95.9032 70.101 91.6168 84.5492 86.4559 101.694L77.0728 132.866L66.3093 132.867L55.5462 132.867L52.0823 121.231C50.1774 114.831 48.4996 109.373 48.3541 109.103C48.1758 108.771 47.8625 109.378 47.3899 110.971C47.0047 112.269 45.351 117.689 43.7145 123.014L40.7392 132.698H30.0272H19.3151L9.67775 101.27C4.37713 83.9846 0.030645 69.5747 0.0185547 69.2475C-0.00193176 68.6913 0.818871 68.6529 12.7336 68.6529H25.4704L25.9416 70.2668Z" fill="#F6F6F6"/>
</svg>
