<svg width="175" height="8" viewBox="0 0 175 8" fill="none" xmlns="http://www.w3.org/2000/svg">
<path d="M3.69975 0.0238042L9.61175 5.9518V0.0238042H11.2758V7.7998H8.99575L1.21175 0.0238042H3.69975ZM0.56375 4.1038L6.61175 6.2958L6.07575 7.7998L0.00375001 5.6478L0.56375 4.1038ZM28.3759 0.0238042V6.3198H28.8879L31.5359 3.6318H33.8639L29.6719 7.7998H25.5999L21.3679 3.6078H23.7119L26.3839 6.2958H26.8719V0.0238042H28.3759ZM44.0833 0.0238042H45.8913V1.5518H50.7793L53.2753 0.0238042H56.9073L50.7793 3.3518H44.0833V0.0238042ZM44.0833 4.4718H50.9793L56.9873 7.7998H53.5873L50.6433 6.2718H45.8673V7.7998H44.0833V4.4718ZM77.0156 0.0238042L70.4876 7.7998H68.2236L73.0236 2.0398V1.9038H67.2636L68.6716 0.0238042H77.0156ZM90.6857 0.0238042L96.5977 5.9518V0.0238042H98.2617V7.7998H95.9817L88.1977 0.0238042H90.6857ZM87.5497 4.1038L93.5977 6.2958L93.0617 7.7998L86.9897 5.6478L87.5497 4.1038ZM120.57 -0.000195503V1.7918H108.458V-0.000195503H120.57ZM110.538 2.9918H118.49V4.7838H110.538V2.9918ZM108.458 5.9998H120.57V7.7998H108.458V5.9998ZM134.996 -0.000195503V7.7998H133.516V1.9598L131.94 3.5278L130.796 2.3758C130.78 2.33314 130.802 2.29047 130.86 2.2478L133.068 -0.000195503H134.996ZM152.788 0.0638041V7.7998H146.9C145.918 7.08514 145.396 5.9278 145.332 4.3278C145.46 2.61047 146.094 1.1918 147.236 0.0718045H149.796V1.9438H148.02V1.5278H147.732C147.326 1.99714 147.124 2.93047 147.124 4.3278C147.102 5.36247 147.252 5.9278 147.572 6.0238H150.996V0.0558043L152.788 0.0638041ZM166.687 0.0238042L172.599 5.9518V0.0238042H174.263V7.7998H171.983L164.199 0.0238042H166.687ZM163.551 4.1038L169.599 6.2958L169.063 7.7998L162.991 5.6478L163.551 4.1038Z" fill="#788596"/>
</svg>
